<svg xmlns="http://www.w3.org/2000/svg" viewBox="0 0 422.47 366.45"><defs><style>.cls-1{fill:#ede735;}.cls-2{fill:#7831f7;}.cls-3{fill:#150151;}.cls-4{fill:#442d47;}</style></defs><g id="Слой_2" data-name="Слой 2"><g id="OBJECTS"><path class="cls-1" d="M.24,1.62c-1.6,15,5,28.37,16.41,37.86,12.24,10.23,29.07,13.8,44.68,13.77,17.22,0,34.33-5.48,51.56-3.29,14.24,1.81,27.57,9.16,37.54,19.37A68.89,68.89,0,0,1,164,89.08c3.25,7.23,4.21,14.93,6.72,22.36.58,1.73,3.58,1.47,4-.28,2.8-12.85-4.57-27.45-11.83-37.69A75.61,75.61,0,0,0,131.25,48c-14.69-6.34-29.95-5.86-45.51-3.86-16.92,2.18-34,4-50.41-2S3.71,20.34,3.81,1.84A1.79,1.79,0,0,0,.24,1.62Z"/><path class="cls-2" d="M44.33,145.11S31.24,126,41.14,118.2,80.41,95.9,89.82,100s13.54,20.15,13.54,20.15Z"/><path class="cls-2" d="M230.48,71.93S222,60.22,225.71,49.76s28.68-19.63,41.1-22.95S285.32,32,287.88,36s5.35,12.54,5.35,12.54Z"/><path class="cls-1" d="M327.53,63.77c-10.7-10.2-22.38-19.52-37.09-22.82a59.62,59.62,0,0,0-38.62,4c-13.2,6.26-23.88,17.25-28.81,30.89l-.31.13a2,2,0,0,1-.42.2,2.13,2.13,0,0,1-.46.22l-1.29.58c-4.57,2-9.17,4-13.75,6-10,4.36-20.13,8.59-30.17,12.85Q151.26,106.62,126.33,118c-.55-.21-1.13-.39-1.71-.57l-.79-.27c-.92-.25-1.84-.56-2.71-.8-1.62-.43-3.19-.84-4.72-1.2a89.73,89.73,0,0,0-26.18-2.33c-19.28,1.16-38.86,8.39-49.91,25-12.12,18.21-12.61,40.66-11.9,61.79s1.73,42.54,4.93,63.49c3.15,20.64,5.67,47.21,14.84,68.62a77.23,77.23,0,0,0,4,8.27,64.45,64.45,0,0,0,9,12.6c9.74,10.53,24.32,16.68,38.59,12.52,16.31-4.78,27.57-18.88,35.71-33.05a141.38,141.38,0,0,0,16-43.38,167.78,167.78,0,0,0,3-25.27c.24-4.81.62-10.2.45-15.47,7.75-2.88,15.83-5.07,23.54-7.67,14.31-4.84,28.44-10.26,42.57-15.67s28.15-11.06,42.39-16.15c7.31-2.63,14.65-5.18,22-7.54.51-.16,1-.3,1.53-.47,22.54,27.12,50.39,50.93,87,53.52,19.13,1.38,42.37-3.43,47.46-24.91,2.31-9.6.2-19.11-2.78-28.29-1.68-5.15-3.61-10.25-5.72-15.25s-4.3-9.74-6.69-14.48c-.84-1.68-1.69-3.33-2.6-5a446.62,446.62,0,0,0-25.55-42.26c-4.74-7.08-9.75-14-15-20.72A371.07,371.07,0,0,0,327.53,63.77Z"/><path class="cls-2" d="M222.28,76.22c5.77,12.23,11.17,24.56,9.18,29.85-3.55,9.41-21.56,18.77-50.08,30.24S145.22,147.6,137.05,140c-3.47-3.23-8.16-12.72-12.43-22.62.58.18,1.16.36,1.71.57q25-11.4,50.28-22.11c10-4.26,20.17-8.49,30.17-12.85,4.58-2,9.18-4,13.75-6l1.29-.58A2.13,2.13,0,0,0,222.28,76.22Z"/><path class="cls-2" d="M249.21,133c-6-1.63-12.76-2.74-18.8-.71a28.63,28.63,0,0,0-16.23,14.41,25.64,25.64,0,0,0-1.77,16.64,26.66,26.66,0,0,0,25.93,20.35,30.26,30.26,0,0,0,23-11.23c5.67-7.22,6.39-16.93,3-25.32C261.6,140.48,256.23,134.89,249.21,133Z"/><path class="cls-3" d="M246.32,139.91c-4.22-1.32-9-2-13.33-.68-3,.94-7.21,3-9,6a16.58,16.58,0,0,0-3.12,4.42,18.4,18.4,0,0,0-1.27,11.92A19.09,19.09,0,0,0,238,176.2c4.63,0,8.7-1.88,12.43-4.49a18.57,18.57,0,0,0,5.63-5.39,17.36,17.36,0,0,0,2.08-6.43C259.2,151.59,254.53,142.46,246.32,139.91Zm8.74,16.75c.16,8.11-6.18,15.52-14.37,17.07a16.32,16.32,0,0,1-18.14-9.86c-4.64-10.6,5.36-23.35,16.43-23.25,6.89.06,13.23,5.13,15.33,11.61A15.25,15.25,0,0,1,255.06,156.66Z"/><path class="cls-2" d="M162.93,168.11c-6-1.64-12.76-2.75-18.8-.71a28.57,28.57,0,0,0-16.23,14.41,25.61,25.61,0,0,0-1.77,16.63,26.66,26.66,0,0,0,25.92,20.36,30.33,30.33,0,0,0,23-11.23c5.67-7.22,6.39-16.94,3-25.33C175.32,175.61,170,170,162.93,168.11Z"/><path class="cls-3" d="M160,175c-4.21-1.31-9-2-13.32-.68-3,.94-7.21,3-9,6a16.51,16.51,0,0,0-3.13,4.43,18.31,18.31,0,0,0-1.27,11.91,19.1,19.1,0,0,0,18.38,14.61c4.63,0,8.7-1.89,12.43-4.5,2.09-1.46,4.33-3.14,5.62-5.39a17,17,0,0,0,2.09-6.43C172.92,186.73,168.25,177.6,160,175Zm8.75,16.76c.16,8.1-6.18,15.52-14.37,17.06A16.31,16.31,0,0,1,136.27,199c-4.64-10.59,5.36-23.34,16.44-23.24,6.88.06,13.22,5.13,15.32,11.6A15.37,15.37,0,0,1,168.78,191.8Z"/><path class="cls-3" d="M293.74,183.48a2.82,2.82,0,0,1,.48,3.85,2.59,2.59,0,0,1-1.41,1c-49.14,14.75-95.05,39.53-145.43,50.2-1.11,18.65-2.93,37.7-8.91,55.52C129,322.15,106,348.63,73.88,346.94A44.56,44.56,0,0,1,52.21,340a77.23,77.23,0,0,1-4-8.27c19.77,18.55,50.68,11.82,68.37-7.38,21.91-23.76,24.11-57.06,27.11-87.55a1.88,1.88,0,0,1,1.54-1.72c51.08-10.83,96.85-37,146.61-51.91A2,2,0,0,1,293.74,183.48Z"/><path class="cls-3" d="M413,185.54a51.8,51.8,0,0,1-1.71,16.81c-4,14.77-15.14,26.17-30.39,28.91-14.79,2.62-30-2.39-43.06-9a141.72,141.72,0,0,1-43.61-34.89c-.44-.5-.85-1-1.27-1.48a1.49,1.49,0,0,1,.77-2.39l0,0a1.21,1.21,0,0,1,1.45.39,143,143,0,0,0,47.16,35.55c12.26,5.67,27,9.45,40.48,5.91,15.17-4,23.61-18.23,24.75-33.23.68-8.87-1-17.56-3.86-25.95a.12.12,0,0,0,0-.07Z"/><path class="cls-3" d="M80.88,201.54c4.13.38,8.73-1.3,12.17-3.51,1.51-1,3.37-2.07,3.7-4s-.85-4.34-1.43-6.24q-1.08-3.44-2.15-6.89c-.18-.55-.36-1.09-.52-1.64q-.11-.34-.18-.69c0-.51-.33-.42-.86.27,0,.22,2.7-.1,2.94-.13,4.06-.49,9.66-1.94,12.26-5.33,1.39-1.81-.6-4.74-2.8-4.14-1.93.52-3.63,1.79-5.48,2.58a25.1,25.1,0,0,1-6,1.62,5.1,5.1,0,0,0-4.26,3.1c-.66,1.89.16,3.73.74,5.52l2.13,6.55c.35,1.1.71,2.19,1.06,3.28.14.44.28.87.4,1.32s.09.3.17-.12l-.34.3c-.88.44-1.64,1.26-2.5,1.76a22.27,22.27,0,0,1-3,1.43,38,38,0,0,1-6.34,1.4,1.8,1.8,0,0,0,.24,3.54Z"/><path class="cls-3" d="M57.8,187.9c1.65.69,3.6.2,5.31,0,1.5-.19,3-.34,4.52-.56s3-.5,4.48-.76l2.39-.4a5,5,0,0,0,3.31-1.85,2.94,2.94,0,0,0-.85-4c-1.95-1.1-4-.35-6.08.1-1.48.33-3,.63-4.44,1s-2.93.78-4.39,1.18c-1.69.45-3.66.73-4.95,2a2,2,0,0,0,.7,3.37Z"/><path class="cls-3" d="M106.26,172.92a3.41,3.41,0,0,0,.5-1.41,6,6,0,0,0-.16-1.33c-.11-.69-.22-1.38-.34-2.08-.25-1.38-.52-2.75-.84-4.11s-.66-2.73-1-4.08c-.19-.67-.38-1.35-.58-2-.09-.33-.19-.67-.29-1a5.54,5.54,0,0,0-.88-1.6c-1.21-1.69-4.25-.56-4.23,1.45a5.13,5.13,0,0,0,.27,1.78c0,.17.11.33.17.5l0,.12c.22.66.44,1.33.65,2,.41,1.3.8,2.6,1.16,3.91s.73,2.63,1.07,3.94l.51,2a6.6,6.6,0,0,0,.36,1.3,3.71,3.71,0,0,0,1,1.13,1.88,1.88,0,0,0,2.59-.55Z"/><path class="cls-3" d="M86.24,161.32a22.83,22.83,0,0,0,.55-4,23.22,23.22,0,0,0-.29-4.16,54.78,54.78,0,0,0-1.73-7.69c-.51-1.68-.9-4-2.8-4.6A2.75,2.75,0,0,0,78.8,142a3.83,3.83,0,0,0,0,3.56c.1.26.2.53.29.79l.18.53s.16.44.07.18.06.19.06.19c.06.18.12.36.17.54q.18.54.33,1.08c.36,1.22.68,2.45.95,3.69.31,1.42.48,2.88.85,4.28s.77,2.89,1.21,4.33a1.79,1.79,0,0,0,1.57,1.38,1.73,1.73,0,0,0,1.73-1.18Z"/><path class="cls-3" d="M290.65,130.34a13.8,13.8,0,0,0,17.66-7.65,14.44,14.44,0,0,0-.26-10.6,11.75,11.75,0,0,0-6.82-7c-2.85-1.06-9.63-2.61-10,2.1a1.79,1.79,0,0,0,.8,1.58c.28.2-.39-.34-.14-.12a4,4,0,0,0,1.31.82,6.72,6.72,0,0,0,1.95.29c.59,0,1.17,0,1.76.08a7.56,7.56,0,0,1,1.53.29,12.77,12.77,0,0,1,1.69.54c.18.07.68.33.25.09l.65.39c.57.36-.28-.36.17.17.2.24.42.47.62.71a7.13,7.13,0,0,1,1,1.46,9.5,9.5,0,0,1,1,6.75,9.07,9.07,0,0,1-4.16,5.61,12,12,0,0,1-8.43,1.8c-1.62-.29-1.89,2.14-.52,2.7Z"/><path class="cls-3" d="M300.71,98.65a22.08,22.08,0,0,0,10.78,1.76,11.81,11.81,0,0,0,8.65-6.1c3.68-6.61,2.28-15.3-4.33-19.45A15.5,15.5,0,0,0,310,72.7c-2-.33-4.69-.25-6.17,1.34a2.27,2.27,0,0,0,.78,3.81,8,8,0,0,0,2.7.35c.42,0,.83,0,1.25.1.14,0,1.06.16.83.11a9.24,9.24,0,0,1,4.14,2,9.13,9.13,0,0,1,3.2,7.68c-.19,3-1.7,6.24-4.6,7.51-3.29,1.45-7.09,1-10.42,0a1.63,1.63,0,0,0-1,3.1Z"/><path class="cls-3" d="M268.64,85.86c7.34,2.43,14.82-2.21,17.85-9s0-16.24-7.78-18a10,10,0,0,0-6.29.32c-1.79.77-3.31,2.4-3.13,4.42a1.14,1.14,0,0,0,.8.9,5.72,5.72,0,0,0,2.4.12c.54-.06,1.38-.09,1.78-.11a7.45,7.45,0,0,1,4,.43c.34.14.4.16.17.08.19.1.38.2.56.31a6.31,6.31,0,0,1,.86.6,12.35,12.35,0,0,1,1.28,1.45,8.68,8.68,0,0,1,1.36,4,11.37,11.37,0,0,1-13.25,11.41c-1.76-.3-2.2,2.47-.57,3Z"/><path class="cls-3" d="M262.53,116.77c3.07.06,6.17-.16,8.88-1.74a11.44,11.44,0,0,0,5.21-7.26c1.41-5.51-.31-11.41-5.1-14.7A11.55,11.55,0,0,0,263.61,91c-1.46.2-3.33,1.23-3.42,2.89-.08,1.42,1.27,2.05,2.45,2.36a16.77,16.77,0,0,0,2,.23l.8.08.18,0c-.29-.05.38.08.44.1a9.87,9.87,0,0,1,1.53.53c-.37-.16.22.12.33.18.31.18.62.37.92.58.1.08.63.49.29.2.2.18.39.37.58.56s.43.47.62.72l.25.33c-.18-.25,0,0,0,.09a8.48,8.48,0,0,1,1.14,3,9.62,9.62,0,0,1-1.36,7c-1.88,2.75-5.24,4-8.18,5.34a.82.82,0,0,0,.31,1.54Z"/><path class="cls-2" d="M280.58,63.82A10.63,10.63,0,0,0,271,60.58a13.76,13.76,0,0,0-10.33,8.89,12,12,0,0,0,5.91,14.29,12.56,12.56,0,0,0,8.38.91,14,14,0,0,0,7.61-5.54C286.1,74.35,284.51,67.85,280.58,63.82Z"/><path class="cls-2" d="M269,95.68c-6.27-6.41-17.24-2.24-19.9,5.65A12,12,0,0,0,255,115.62a12.51,12.51,0,0,0,8.38.92A14.08,14.08,0,0,0,271,111C274.54,106.21,273,99.71,269,95.68Z"/><path class="cls-2" d="M304.3,74.39A13.9,13.9,0,0,0,294,83.28a12,12,0,0,0,5.92,14.29,12.44,12.44,0,0,0,8.38.91,13.94,13.94,0,0,0,7.61-5.54c3.51-4.78,1.92-11.28-2-15.3A10.64,10.64,0,0,0,304.3,74.39Z"/><path class="cls-2" d="M291.66,105.32a13.37,13.37,0,0,0-10.37,8.73,12,12,0,0,0,5.92,14.29,12.51,12.51,0,0,0,8.38.92,14,14,0,0,0,7.61-5.54c3.51-4.79,1.92-11.29-2-15.31A10.63,10.63,0,0,0,291.66,105.32Z"/><path class="cls-2" d="M64.43,147.14c.12.73,13,51.3,14.87,51.66s12.27-2.26,13.62-4.94-14-50.71-14.75-52S63.89,144.1,64.43,147.14Z"/><path class="cls-2" d="M52.34,168.84S98,155.12,98.91,156s5.48,13.43,4.3,14.58-44.19,15.56-46,14.19S49.66,170.71,52.34,168.84Z"/><path class="cls-3" d="M310,93.77a7.83,7.83,0,0,0,4.74-5.06,10,10,0,0,0,.37-3.76c-.12-1.49-.64-3.1-2.29-3.39l.5.17-.09-.07a1,1,0,0,0-1.51.76v.11c.06-.17.12-.33.17-.5a3,3,0,0,0-.23,2c.1.47.24.92.3,1.39,0,.13,0,.25,0,.38s0,.08,0-.1v.19c0,.23,0,.46,0,.69s-.05.49-.08.74c-.06.41.07-.3,0,.11l-.09.36c-.12.46-.28.92-.44,1.37-.08.21-.17.42-.26.63.12-.26,0,.07-.07.12l-.19.32A6.36,6.36,0,0,1,309,92.32a.88.88,0,0,0-.14,1.15.9.9,0,0,0,1.12.3Z"/><path class="cls-4" d="M312.51,79.89c-.14-.19-.28-.39-.43-.57a3.13,3.13,0,0,0-.25-.26,3.07,3.07,0,0,0-.25-.26.51.51,0,0,0-.89.44c0,.11,0,.23.07.35s0,.23.07.35.15.45.23.67a.87.87,0,0,0,.19.4.86.86,0,0,0,1,.2.88.88,0,0,0,.43-.5.86.86,0,0,0,0-.42.87.87,0,0,0-.19-.4Z"/><path class="cls-3" d="M296.65,126.63c1.23.38,2.75-.53,3.54-1.42a8,8,0,0,0,1.81-3.45,8.41,8.41,0,0,0,.06-4,7.38,7.38,0,0,0-.66-1.9,4.14,4.14,0,0,0-.57-.8,2.56,2.56,0,0,0-.62-.61.49.49,0,0,0-.73.25,4.47,4.47,0,0,0-.17,1.5c0,.53.08,1.16.1,1.59a14.45,14.45,0,0,1-.1,3.15c-.05.26.08-.29,0,.15,0,.12-.06.24-.1.36s-.16.47-.25.7a3.54,3.54,0,0,1-.28.54c-.13.21-.27.42-.42.62a6.75,6.75,0,0,1-.84.92,9,9,0,0,0-1.17,1.13.85.85,0,0,0,.44,1.26Z"/><path class="cls-3" d="M263.14,112.26A6.49,6.49,0,0,0,270,107.6a3.4,3.4,0,0,0-.07-2.51,1,1,0,0,0-1.09-.69.92.92,0,0,0-.45.23,1,1,0,0,0-.3.44c0,.05-.06.33,0,.11,0,.12-.12.23-.16.36a3.35,3.35,0,0,0-.07.44c0,.19.07-.26,0,.06l-.06.19c0,.08-.12.59-.07.36s0,.15,0,.15a4,4,0,0,1-.15.49,4,4,0,0,1-.2.48c.11-.22-.06.11-.1.18a6.31,6.31,0,0,1-.6.86s-.26.29-.06.08l-.22.23c-.12.12-.25.25-.38.36s-.29.24-.45.35.23-.13-.06,0l-.27.15a3.89,3.89,0,0,1-1.9.57.87.87,0,0,0-.11,1.73Z"/><path class="cls-3" d="M276.84,81.24A9.73,9.73,0,0,0,282,75.51a9.59,9.59,0,0,0,.43-4.05,4.26,4.26,0,0,0-2-3.34c-.36-.17-.71.18-.75.5a5.88,5.88,0,0,0,.07,1.52c.1.69.09,1.08.15,1.76a5.36,5.36,0,0,1,0,.64,6.79,6.79,0,0,1,0,.78,8.34,8.34,0,0,1-.23,1.48,7.4,7.4,0,0,1-3.53,4.88.87.87,0,0,0,.76,1.56Z"/><path class="cls-3" d="M132.48,121.48a13.8,13.8,0,0,0,2,5.39,13.57,13.57,0,0,0,1.71,2.35,6.23,6.23,0,0,0,1.21,1,2.54,2.54,0,0,0,1.34.53.7.7,0,0,0,.73-.65,5.09,5.09,0,0,0-1.16-2.54c-.46-.67-.94-1.37-1.35-2a49.49,49.49,0,0,1-2.42-4.76,1.09,1.09,0,0,0-2.05.68Z"/><path class="cls-3" d="M142.67,137.64a10.67,10.67,0,0,0,2.26,1.27,3.44,3.44,0,0,0,.53.21,4.32,4.32,0,0,0,.78.16l.3,0,.3-.1c.08,0,0,0-.15,0s-.24,0-.14,0a.93.93,0,0,0,.29,0,1.42,1.42,0,0,0,.9-.37.66.66,0,0,0,.15-.79c0-.06-.07-.12-.11-.17a1.4,1.4,0,0,0-.26-.33,1.63,1.63,0,0,0-.38-.22l-.16-.07c-.08,0,0,0,.11.09s.18.13.11,0l0,0a.86.86,0,0,0-.37-.26l-.25-.12c-.42-.17-.84-.34-1.25-.53l.28.13a10.12,10.12,0,0,1-1.61-1,1.19,1.19,0,0,0-1.65.35,1.21,1.21,0,0,0,.35,1.65Z"/><path class="cls-3" d="M246.42,165a8.77,8.77,0,0,0,2.58-2.42,9.33,9.33,0,0,0,1.27-3.2,11.47,11.47,0,0,0,.14-3.65c-.15-1.21-.59-2.83-2-3.05a.73.73,0,0,0-.67.34c-.57.91-.09,2.11,0,3.09a8.71,8.71,0,0,1-.06,2.69,12.6,12.6,0,0,1-.35,1.32,12.12,12.12,0,0,1-.51,1.28,10.57,10.57,0,0,1-1.48,2.47c-.49.57.37,1.55,1,1.13Z"/><path class="cls-3" d="M247.11,150.87a.8.8,0,0,0-1.06-1.2.8.8,0,0,0,1.06,1.2Z"/><path class="cls-3" d="M157.53,203.13a9.47,9.47,0,0,0,5.69-4.57,11.52,11.52,0,0,0,1.23-3.61c.2-1.19.26-3.12-1.1-3.64a.74.74,0,0,0-.74.15c-.84.73-.62,2.18-.74,3.19a8.53,8.53,0,0,1-.8,2.6,9.07,9.07,0,0,1-4.11,4.17c-.91.43-.43,2,.57,1.71Z"/><path class="cls-3" d="M163.35,184.63,162,183.38a.72.72,0,0,0-.34-.19.62.62,0,0,0-.38.05.61.61,0,0,0-.33.66c.13.57.27,1.13.41,1.69a1.15,1.15,0,0,0,.76.85,1.12,1.12,0,0,0,1.19-1.81Z"/><path class="cls-3" d="M277.28,35.32a5.33,5.33,0,0,1,.83-.41c.29-.12.58-.24.88-.34l-.36.12c.27-.09.56-.15.82-.26a5.11,5.11,0,0,1,.48-.22l.31-.21a1.16,1.16,0,0,0,.32-.44,1.38,1.38,0,0,0,.12-.87,1.72,1.72,0,0,0-.32-.65,1.37,1.37,0,0,0-1-.46l-.71.05a2.11,2.11,0,0,0-.65.19,5.77,5.77,0,0,0-.7.36,4.21,4.21,0,0,0-.85.66,8.78,8.78,0,0,0-.7.79c0,.09-.09.18-.13.28a.82.82,0,0,0,0,.44,1,1,0,0,0,.28.69,1.27,1.27,0,0,0,.51.34,1.14,1.14,0,0,0,.87-.06Z"/><path class="cls-3" d="M273.65,31.52l1.4-.42a6.14,6.14,0,0,0,.88-.33,1.36,1.36,0,0,0,.63-.46,1.4,1.4,0,0,0,.16-.43.74.74,0,0,0-.29-.81,1.36,1.36,0,0,0-.4-.25,1.47,1.47,0,0,0-.75,0l-.34.07c-.19.05-.38.13-.57.19l-1.36.51a1,1,0,0,0-.53.59,1,1,0,0,0,0,.64,1,1,0,0,0,.4.54,1,1,0,0,0,.75.14Z"/><path class="cls-3" d="M82.8,110.91a9.16,9.16,0,0,0,1.88-.19,8.12,8.12,0,0,0,.81-.22,5.09,5.09,0,0,0,1-.38c.4-.24.86-.52.84-1.05a.7.7,0,0,0-.3-.62.94.94,0,0,0-.73-.18,1.66,1.66,0,0,0-.35.13c-.12,0,.16-.06,0,0l-.09,0c-.2.06-.39.14-.59.22l-.39.15.08,0-.09,0-.22.07a8,8,0,0,1-1,.2,3.93,3.93,0,0,1-.48.06h-.09c.2-.05.09,0,0,0h-.27a.91.91,0,0,0-1,.84.9.9,0,0,0,.84.94Z"/><path class="cls-3" d="M84.67,105.27a2.2,2.2,0,0,1,.36,0h-.24a2.72,2.72,0,0,1,.57,0,5.17,5.17,0,0,1,.55.07l-.18,0a2.9,2.9,0,0,1,.57.18.6.6,0,0,0,.63-1,3.86,3.86,0,0,0-.5-.49,2.47,2.47,0,0,0-.53-.36,3.78,3.78,0,0,0-1.37-.34,1,1,0,0,0-.71.25,1,1,0,0,0-.32.81,1,1,0,0,0,1.17.9Z"/><path class="cls-3" d="M391.68,200.35a23.47,23.47,0,0,0,6.81-7.76,20,20,0,0,0,1.89-5.05,12.75,12.75,0,0,0,.41-3.3,15.06,15.06,0,0,0-.33-1.47c0,.18.14.42.11,0a3.27,3.27,0,0,0-1.41-2.2l.93,1.06a5.55,5.55,0,0,0-.62-1.18,7.6,7.6,0,0,0-.83-.67,1.64,1.64,0,0,0-2,.15c.49-.41-.56.47-.65.56a1.71,1.71,0,0,0-.45.77c-.11.29-.14.32-.08.09l1.05-.93a3.44,3.44,0,0,0-1.59,1.75c-.07.17-.11.34-.17.51.24-.69-.19.35-.25.48a17.16,17.16,0,0,0-.59,2.24,35.46,35.46,0,0,1-1.45,4.29c-.09.21-.52,1.08-.2.47q-.39.75-.75,1.5c-.13.29-.11.25,0,0-.08.17-.16.33-.25.5-.17.32-.35.64-.53,1a15.49,15.49,0,0,1-1.31,1.92s-.37.44-.19.24-.19.2-.22.23c-.28.31-.57.6-.87.89a2.63,2.63,0,0,0,3.49,3.94Z"/><path class="cls-3" d="M388.68,176.73a17.69,17.69,0,0,0,3.84-6.13,10.25,10.25,0,0,0,.59-3.42,3.82,3.82,0,0,0-.37-1.76c0-.12,0-.08.05.11s.09.22,0,0a2.93,2.93,0,0,0-.05-.29,3.48,3.48,0,0,0-1-1.81,1.54,1.54,0,0,0-2.14-.13,4.13,4.13,0,0,0-1.13,1.39l-.12.29c.14-.32.17-.36.06-.15s-.22.31-.35.46l.47-.54-.56.65c-.13.26-.26.53-.38.79l-.26.57.33-.68c-.45.94-.88,1.88-1.32,2.82.11-.25.23-.49.35-.74a20.29,20.29,0,0,1-2.72,4.36l.56-.64-.1.12a3.4,3.4,0,0,0-1.06,2.16,3.16,3.16,0,0,0,2.95,3.34,3.06,3.06,0,0,0,2.28-.79Z"/><path class="cls-3" d="M102.81,318.65a46,46,0,0,0,8.83-5.49,29.07,29.07,0,0,0,3.75-3.61c1.23-1.39,2.9-3.81,1.76-5.66-1.34-2.18-3.89-.45-5.18.76s-2.4,2.53-3.61,3.75a42.82,42.82,0,0,1-7.58,6.11,2.38,2.38,0,0,0-1.06,3.09,2.34,2.34,0,0,0,3.09,1Z"/><path class="cls-3" d="M111.68,296.22l1.4-1.93a22,22,0,0,0,1.38-1.94,13.11,13.11,0,0,0,1.26-2.44c.39-1.16.85-2.53-.08-3.58l-.4-.35-1.64-.28a2.86,2.86,0,0,0-1.35.61l-.85.66a13.57,13.57,0,0,0-1.94,2.13c-.51.6-.93,1.29-1.38,1.93l-1.35,2a3,3,0,0,0,.86,4.09,3,3,0,0,0,4.09-.86Z"/></g></g></svg>