<svg xmlns="http://www.w3.org/2000/svg" viewBox="0 0 333.83 402.77"><defs><style>.cls-1{fill:#ede735;}.cls-2{fill:#00d3f9;}.cls-3{fill:#7831f7;}.cls-4{fill:#fff;}.cls-5{fill:#442d47;}</style></defs><g id="Слой_2" data-name="Слой 2"><g id="OBJECTS"><path class="cls-1" d="M277.16,134.23,241,130.11c.25,0-.41-10.24-9.15-35.45-3-8.78-9.06-18.07-14.68-25.56-24.49-32.64-69-44.83-107.47-32.77C79.07,45.93,65.34,67,65.34,67S77.24,21.23,117,11.62s97.45,0,120.32,24.71S277.16,134.23,277.16,134.23Z"/><path class="cls-1" d="M58,141.09c-.09,0,3.74,13.24,3.65,13.27-11.76,3.41-24.51,5.79-36.14,9.61a82.71,82.71,0,0,0-11.9,5C8.46,156.23-4,118.66,8.16,78,25.31,20.31,115.21,3.16,138.54.41S201,9.34,212.65,12.77,144.72-5.76,102.17,27.18s-45.29,70-46.66,89.21A72.41,72.41,0,0,0,58,141.09Z"/><path class="cls-1" d="M273.5,191s18.76,7.78,25.62,26.54S311,260,296.37,286.12,248.8,316.77,236,314.48s-18.76-68.17-18.76-68.17S262.52,183.64,273.5,191Z"/><path class="cls-2" d="M140.83,206.52s0-24.71,30.65-41.64,81,.46,100.19,20.59,26.08,60.84,19.67,89.21-26.07,38.89-59.47,43-57.19,3.66-65.88-1.83S140.83,206.52,140.83,206.52Z"/><path class="cls-2" d="M21.88,224.35s30.65-49.86,70.45-54,60.85,27.45,77.78,56.27,30.19,70.46,9.15,95.62-56.73,37.51-87.38,38.43-42.55-14.18-57.65-34.77S21.88,224.35,21.88,224.35Z"/><path class="cls-1" d="M10.2,303.05c7,11.75,23,37.61,40.83,48.2a35.43,35.43,0,0,0,7.33,3.35,22.94,22.94,0,0,0,8.13,1.29c23.31-.7,62.45-20.6,74.1-36.39s-1.36-45.27-12.34-66.57-30.18-50.08-52.84-50.77-42.56,9.61-63.15,29.52a36.27,36.27,0,0,0-7,9.28s0,0,0,0a42.53,42.53,0,0,0-3.95,10.91,0,0,0,0,1,0,0C-2.87,270.68,3.83,292.27,10.2,303.05Z"/><path class="cls-2" d="M264.86,394.86c2.89,4.66,8.61,6.67,13.79,7.43A50.68,50.68,0,0,0,304.5,399c12.54-5,24.57-14.68,28.33-28.16,3.16-11.37-1.22-25.47-12.41-30.72-13.35-6.27-29.73,1.62-40.24,10.06a46.45,46.45,0,0,0-13.44,17.21c-2.46,5.49-4.83,13.8-4,20.75A16.1,16.1,0,0,0,264.86,394.86Z"/><path class="cls-3" d="M317.09,362.14h0a3.92,3.92,0,0,1-2-.53,4.08,4.08,0,0,1-1.4-1.4,4,4,0,0,1-.54-2,2.92,2.92,0,0,1,.34-1.51,3,3,0,0,1,.81-1.26,4,4,0,0,1,1.73-1,3.91,3.91,0,0,1,3.81,1v0l.62.79.39.93c.05.35.1.69.14,1a2.86,2.86,0,0,1-.34,1.5,1.92,1.92,0,0,1-.5.86,1.88,1.88,0,0,1-.7.7,1.94,1.94,0,0,1-.86.51,2.91,2.91,0,0,1-1.51.33Z"/><path class="cls-3" d="M300.56,354.61l-.34-.07-.75-.31a2.42,2.42,0,0,1-.87-.81,1.52,1.52,0,0,1-.4-.68,2.28,2.28,0,0,1-.27-1.2c0-.28.07-.56.11-.83l.32-.74a2.34,2.34,0,0,1,.8-.88,2.4,2.4,0,0,1,1.06-.55l.34-.07a3.23,3.23,0,0,1,1.69,0,3.17,3.17,0,0,1,1.41.81l.5.65a3.13,3.13,0,0,1,.43,1.61,2.36,2.36,0,0,1-.27,1.23,2.43,2.43,0,0,1-.66,1,3.1,3.1,0,0,1-1.41.82,3.23,3.23,0,0,1-1.69,0Z"/><path class="cls-3" d="M302.73,370.24l-.11.1a2.21,2.21,0,0,1-1,.63,2.29,2.29,0,0,1-1.16.25l-.8-.1a3,3,0,0,1-1.32-.78.52.52,0,0,1-.11-.1l-.5-.64c-.1-.25-.21-.5-.32-.75a2.35,2.35,0,0,1-.05-1.26,3,3,0,0,1,.62-1.5,1.53,1.53,0,0,1,.57-.56,1.47,1.47,0,0,1,.7-.41,2.29,2.29,0,0,1,1.21-.27l.85.11.75.32.64.49.49.64c.11.25.22.5.32.76a2.45,2.45,0,0,1,.06,1.26,1.51,1.51,0,0,1-.22.8,2.23,2.23,0,0,1-.65,1Z"/><path class="cls-4" d="M137.55,178.66c21.1,16.83,33.71,43.13,43.72,67.58,9.29,22.67,17.51,48,7.66,71.95-4.63,11.29-14.24,24.44-26.58,27.78a2.17,2.17,0,0,1-2.09-3.6c3.85-4.36,8.78-7.64,12.8-11.87a50.27,50.27,0,0,0,9.1-13.38c4.2-9,5.38-19.24,4.92-29.08-.61-13.18-5.34-25.6-10.13-37.76a302.74,302.74,0,0,0-16-34.53c-7-12.81-15.69-24.2-25.35-35.11a1.4,1.4,0,0,1,2-2Z"/><path class="cls-3" d="M31.75,336.12c-5.2-2.74-9.09-7.55-12.36-12.35a57.63,57.63,0,0,1-4.32-7.46,33.89,33.89,0,0,1-1.74-4.12,9.92,9.92,0,0,1-.34-4.46c.07-.58.81-1.07,1.29-.53a13.55,13.55,0,0,1,2.28,3.16c.62,1.25,1.11,2.56,1.7,3.83a56.61,56.61,0,0,0,4.08,7.35c3.09,4.72,7.13,8.6,10.67,13a1,1,0,0,1-1.26,1.62Z"/><path class="cls-3" d="M10.23,301c-.48-1-1-2-1.41-3a.87.87,0,0,1-.09-.67.92.92,0,0,1,.31-.46.88.88,0,0,1,1.16.07c.72.8,1.44,1.61,2.14,2.42a1.48,1.48,0,0,1,.4,1,1.36,1.36,0,0,1-1.53,1.32,1.27,1.27,0,0,1-1-.65Z"/><path class="cls-5" d="M4,96.42a.16.16,0,0,1,0-.33.16.16,0,0,1,0,.33Z"/><path class="cls-5" d="M4,104.8a1.22,1.22,0,0,1,0-2.44,1.22,1.22,0,0,1,0,2.44Z"/><path class="cls-3" d="M236.9,109c.1-.66.17-1.32.3-2a78.37,78.37,0,0,1,2.22-8.07c.45-1.37.93-2.74,1.4-4.11,6.74,18.7,9.85,34.13,9.58,52.62-.35,23-4.46,37.91-4.46,37.91l-7.89-1.71S248,144.13,236.9,109Z"/><polygon class="cls-3" points="241.95 138.24 250.27 139.43 278.2 143.48 277.17 132.17 249.51 129.38 241.05 128.56 241.95 138.24"/><path class="cls-3" d="M63.51,189.13S45.67,120.05,54.82,86.19c14-51.7,63-86.61,116.5-82,46.11,4,88.08,36,101.67,80.65a252.15,252.15,0,0,1,11.15,63.47,206.38,206.38,0,0,1-1.32,33.25c-.26,2.09-3.82,23.29-5.2,25.85,0,0-7.79-5.41-7.78-5.49.73-3.8,2.49-20.88,2.72-23.61,4.27-50.56-4.78-106.67-46.18-140.9-20.63-17.06-46.86-26-73.65-23.06-49.87,5.49-76.41,33.85-85.56,73.2s6,101.1,6,101.1Z"/><path class="cls-3" d="M14.93,163.68c5.66-3,17.27-6.72,19.25-7.29a165.63,165.63,0,0,1,25.55-5L63,162.28s-2.55.1-12.58,2.33C43,166.24,30.1,170.05,23.8,172c1.25,3.51,2.53,7,3.93,10.47a248,248,0,0,0,14.69,30l-9.56,7.35s-7.32-10.06-15.1-32.94c-2.65-7.82-4.55-14.75-5.91-20.53C11.7,165.65,13,164.72,14.93,163.68Z"/><path class="cls-3" d="M188.47,279.07c-.06-1-.22-2.06-.34-3.09a36.9,36.9,0,0,0,16.08,3.18c6.85-.14,14.68-1.26,20.69-4.78,5.46-3.19,9.28-8.77,11.29-14.69,4.43-13.07-.25-27.87-8.33-38.58a41,41,0,0,0-34.69-16.65c-10.66.53-20.55,7.36-25.68,16.68-.74-1-1.5-2-2.31-2.94a33,33,0,0,1,20-16.84c15.47-4.77,31.94.6,43,12.09a54.86,54.86,0,0,1,15,43.51,31.63,31.63,0,0,1-10,19.57c-6.08,5.51-14,7.65-22,8.72a54.31,54.31,0,0,1-22.6-1.83C188.58,281.92,188.56,280.44,188.47,279.07Z"/><path class="cls-3" d="M5.26,241s0,0,0,0A75,75,0,0,1,29.07,225.8,65.23,65.23,0,0,1,55.61,221c9.45.5,17.54,5,24.61,11a112,112,0,0,1,31.71,46.27c3.31,9,6.14,19,5.6,28.65-.53,9.36-5,17-11.94,23.16C97.5,337.28,87.68,343,77.83,347.43a130.15,130.15,0,0,1-15.22,5.84c-1.4.43-2.79.9-4.25,1.33A35.43,35.43,0,0,1,51,351.25c1.59-.37,3.19-.73,4.81-1.13A124.61,124.61,0,0,0,93.65,333.5c7.37-4.84,15.29-10.74,18.25-19.44,3-8.92.79-18.8-1.76-27.56a109.51,109.51,0,0,0-26.11-45c-5.8-6-12.4-12-20.46-14.75-8.66-3-18.41-1.8-27.06.69A67.46,67.46,0,0,0,12.59,240,69.82,69.82,0,0,0,1.31,251.91a0,0,0,0,1,0,0Z"/><path class="cls-3" d="M114.62,339.79a114.22,114.22,0,0,0,6.31,9.83,96.69,96.69,0,0,0,11.32,13,100,100,0,0,0,29.05,19.17c24.44,10.67,52.62,12.12,78.71,8a213.8,213.8,0,0,0,29.39-7l.2.08.1,0,.51.29.27.2a7.73,7.73,0,0,1,.73.67c.11.12.47.6.22.25.1.14.21.28.31.44a8.56,8.56,0,0,1,.58,1c.07.16.15.36,0,.05,0,.09.08.17.11.26s.14.38.2.57a9.63,9.63,0,0,1,.28,1.18l0,.21a.32.32,0,0,0,0,.07c0,.2,0,.4,0,.6s0,.65,0,1c-46.05,20.65-106.33,17.05-144.32-17.21-8.68-7.82-16.9-17.79-21.51-28.85C109.7,342.47,112.18,341.15,114.62,339.79Z"/><path class="cls-3" d="M16,61.16A82.29,82.29,0,0,0,9.56,76.59c-.87,2.63-1.55,5.3-2.2,8C6.75,87.13,6.41,90,5,92.2A1,1,0,0,1,3.14,92c-.81-2.69-.08-5.72.53-8.39a69.19,69.19,0,0,1,2.5-8.2,49.46,49.46,0,0,1,3.37-7.76c1.47-2.55,3-5.08,4.56-7.57A1.12,1.12,0,0,1,16,61.16Z"/><path class="cls-3" d="M32.4,137.8a20.93,20.93,0,0,0-7.91.45c-1.32.34-2.58.85-3.89,1.23a10.51,10.51,0,0,1-2.22.37,6.31,6.31,0,0,1-1.79.12.81.81,0,0,1-.56-1,5.2,5.2,0,0,1,1.06-1.72A6.42,6.42,0,0,1,19,135.58a14.43,14.43,0,0,1,4.47-1.66,25.73,25.73,0,0,1,9.54-.34,2.15,2.15,0,0,1-.57,4.22Z"/><path class="cls-3" d="M25.59,124.61l-6.26,1.6a14.5,14.5,0,0,1-3.38.63,12.12,12.12,0,0,1-1.59-.2,4.9,4.9,0,0,1-1.53-.31.78.78,0,0,1-.28-1.07,5,5,0,0,1,1.16-1c.43-.29.85-.65,1.3-.91a12.82,12.82,0,0,1,3.25-1l6.28-1.52A2,2,0,0,1,27,122.18a2,2,0,0,1-1.37,2.43Z"/><path class="cls-3" d="M59.31,262.29a100.42,100.42,0,0,0-11.68,4.9c-1.84.91-3.61,2-5.46,2.87s-4.12,2-6.13,1.83a.92.92,0,0,1-.88-1.15c.72-1.92,2.66-3.39,4.31-4.5a36.53,36.53,0,0,1,6.28-3,67.45,67.45,0,0,1,12.78-3.76,1.45,1.45,0,0,1,.78,2.8Z"/><path class="cls-3" d="M56.72,280.24a16.74,16.74,0,0,0-2.23.5,9.89,9.89,0,0,0-1.09.35l-.54.2-.26.1c.25-.11.29-.11.08,0-.69.32-1.36.69-2,1a3.39,3.39,0,0,1-.89.28l-.61.09a2.71,2.71,0,0,1-.57-.09c.51,0,.63,0,.34,0l-.26.06-.52.13a1.07,1.07,0,0,1-1.2-1.55c.09-.16.19-.31.28-.45a2.11,2.11,0,0,1,.14-.22c.1-.18.11-.14,0,.13s-.07.33,0,0a2.69,2.69,0,0,1,1.06-1.71,10.64,10.64,0,0,1,2.47-1.31,19,19,0,0,1,4.78-1.35,2.17,2.17,0,0,1,1.52.2,2,2,0,0,1-.47,3.6Z"/><path class="cls-3" d="M237.47,216.4l.29-.26c-.32.27.22-.25.33-.32a6.52,6.52,0,0,1,.78-.51c.46-.29.92-.57,1.39-.84a14.16,14.16,0,0,0,1.31-.87c.24-.17.17-.12,0,0,.23-.17.45-.36.69-.52s.46-.3.67-.46a2.44,2.44,0,0,0,.31-.22c-.42.39-.06,0,0,0l.57-.49a8.26,8.26,0,0,1,.94-.74c.2-.12.24-.08,0,0a1.87,1.87,0,0,0,.33-.3,12.68,12.68,0,0,1,1.49-1.13c.21-.15.19-.14.4-.31s.5-.4.75-.59a.91.91,0,0,1,1.36.78,7.58,7.58,0,0,1-1.06,3.52,8.76,8.76,0,0,1-2.51,2.91,11.06,11.06,0,0,1-1.75,1.2q-.95.47-1.92.84a8.38,8.38,0,0,1-2,.46,4.88,4.88,0,0,1-.85.07l-.42-.06c-.4-.18-.51-.22-.31-.12s.09.06-.06,0l-.26,0a1.22,1.22,0,0,1-.53-2Z"/><path class="cls-3" d="M219.8,205.41c1.25-2.65,2.63-5.24,4.12-7.75a38.25,38.25,0,0,1,5.64-6.68.45.45,0,0,1,.7.54c-1.38,2.52-2.46,5.23-3.95,7.68s-2.88,5-4.14,7.6a1.37,1.37,0,1,1-2.37-1.39Z"/><path class="cls-3" d="M128.65,244.67c.19-.18.31-.37.49-.56a6.92,6.92,0,0,1,.69-.52,10.42,10.42,0,0,1,1.25-.83l2.51-1.25a10.82,10.82,0,0,1,2.95-.89,6.51,6.51,0,0,1,1-.15c.35,0,.3,0,.56,0a3.64,3.64,0,0,1,.81,0q.33,0,.66.06a.5.5,0,0,1,.35.84,9.3,9.3,0,0,1-.93,1,5.26,5.26,0,0,0-.44.49,5.2,5.2,0,0,1-.59.46,11.08,11.08,0,0,1-2.85,1.68l-2.63,1a8.86,8.86,0,0,1-1.35.33,8,8,0,0,1-1,.16c-.26,0-.49,0-.74,0a1.07,1.07,0,0,1-.75-1.81Z"/><path class="cls-3" d="M115.6,226.13a50.37,50.37,0,0,0,3.18-4c.52-.69,1-1.4,1.52-2.12s.82-1.57,1.3-2.32c.23-.37,1-.26.91.26a14.24,14.24,0,0,1-.65,2.63,18.88,18.88,0,0,1-1,2.75,17.4,17.4,0,0,1-3.4,4.64,1.34,1.34,0,0,1-1.84,0,1.31,1.31,0,0,1,0-1.83Z"/><path class="cls-3" d="M147.69,304.94a14.88,14.88,0,0,1,6.05.36,8.22,8.22,0,0,1,3,1.71,7.35,7.35,0,0,1,.88,1,4.59,4.59,0,0,1,.9,1.33.83.83,0,0,1-.8,1,7.06,7.06,0,0,1-1.35-.23c-.18-.05-.21-.05-.1,0a1.78,1.78,0,0,1-.57-.06l-.66-.12c-.84-.16-1.67-.32-2.49-.56s-1.64-.5-2.46-.69c-.44-.1-.89-.19-1.33-.25.4.05-.3,0-.37,0l-.68-.05a1.73,1.73,0,0,1-1.71-1.71,1.76,1.76,0,0,1,1.71-1.71Z"/></g></g></svg>